<?xml version="1.0" encoding="UTF-8" standalone="no"?>
<svg
   width="128"
   height="128"
   version="1.1"
   viewBox="0 0 33.866 33.866"
   id="svg70"
   sodipodi:docname="fedora-app-grid-symbolic.svg"
   inkscape:version="1.4 (86a8ad7, 2024-10-11)"
   xmlns:inkscape="http://www.inkscape.org/namespaces/inkscape"
   xmlns:sodipodi="http://sodipodi.sourceforge.net/DTD/sodipodi-0.dtd"
   xmlns="http://www.w3.org/2000/svg"
   xmlns:svg="http://www.w3.org/2000/svg">
  <sodipodi:namedview
     id="namedview70"
     pagecolor="#ffffff"
     bordercolor="#000000"
     borderopacity="0.25"
     inkscape:showpageshadow="2"
     inkscape:pageopacity="0.0"
     inkscape:pagecheckerboard="0"
     inkscape:deskcolor="#d1d1d1"
     inkscape:zoom="9.1171875"
     inkscape:cx="58.241645"
     inkscape:cy="68.716367"
     inkscape:window-width="2560"
     inkscape:window-height="1369"
     inkscape:window-x="-8"
     inkscape:window-y="-8"
     inkscape:window-maximized="1"
     inkscape:current-layer="svg70" />
  <defs
     id="defs42">
    <linearGradient
       id="linearGradient1372"
       x1="34.705"
       x2="34.705"
       y1="-30.727"
       y2="-38.74"
       gradientTransform="matrix(.5297 0 0 .5297 -1.0863 27.968)"
       gradientUnits="userSpaceOnUse">
      <stop
         stop-color="#efb63f"
         offset="0"
         id="stop1" />
      <stop
         stop-color="#f8d650"
         offset="1"
         id="stop2" />
    </linearGradient>
    <linearGradient
       id="linearGradient1380"
       x1="32.125"
       x2="32.125"
       y1="-29.828"
       y2="-39.838"
       gradientTransform="matrix(.5297 0 0 .5297 -1.0863 27.968)"
       gradientUnits="userSpaceOnUse">
      <stop
         stop-color="#a88a47"
         offset="0"
         id="stop3" />
      <stop
         stop-color="#d7cfa7"
         offset="1"
         id="stop4" />
    </linearGradient>
    <linearGradient
       id="linearGradient1384"
       x1="34.705"
       x2="34.705"
       y1="-30.727"
       y2="-38.74"
       gradientTransform="matrix(.5297 0 0 .5297 -8.67 27.968)"
       gradientUnits="userSpaceOnUse">
      <stop
         stop-color="#68d848"
         offset="0"
         id="stop5" />
      <stop
         stop-color="#99f27b"
         offset="1"
         id="stop6" />
    </linearGradient>
    <linearGradient
       id="linearGradient1386"
       x1="32.125"
       x2="32.125"
       y1="-29.828"
       y2="-39.838"
       gradientTransform="matrix(.5297 0 0 .5297 -8.67 27.968)"
       gradientUnits="userSpaceOnUse">
      <stop
         stop-color="#5a9555"
         offset="0"
         id="stop7" />
      <stop
         stop-color="#ccf4bd"
         offset="1"
         id="stop8" />
    </linearGradient>
    <linearGradient
       id="linearGradient1402"
       x1="34.705"
       x2="34.705"
       y1="-30.727"
       y2="-38.74"
       gradientTransform="matrix(.5297 0 0 .5297 6.2792 27.968)"
       gradientUnits="userSpaceOnUse">
      <stop
         stop-color="#e07f3e"
         offset="0"
         id="stop9" />
      <stop
         stop-color="#f1a73e"
         offset="1"
         id="stop10" />
    </linearGradient>
    <linearGradient
       id="linearGradient1404"
       x1="32.125"
       x2="32.125"
       y1="-29.828"
       y2="-39.838"
       gradientTransform="matrix(.5297 0 0 .5297 6.2792 27.968)"
       gradientUnits="userSpaceOnUse">
      <stop
         stop-color="#ae714f"
         offset="0"
         id="stop11" />
      <stop
         stop-color="#ffdc8f"
         offset="1"
         id="stop12" />
    </linearGradient>
    <linearGradient
       id="linearGradient1514"
       x1="34.705"
       x2="34.705"
       y1="-30.727"
       y2="-38.74"
       gradientTransform="matrix(.5297 0 0 .5297 -8.67 35.368)"
       gradientUnits="userSpaceOnUse">
      <stop
         stop-color="#b9281b"
         offset="0"
         id="stop13" />
      <stop
         stop-color="#e54e3b"
         offset="1"
         id="stop14" />
    </linearGradient>
    <linearGradient
       id="linearGradient1516"
       x1="32.125"
       x2="32.125"
       y1="-29.828"
       y2="-39.838"
       gradientTransform="matrix(.5297 0 0 .5297 -8.67 35.368)"
       gradientUnits="userSpaceOnUse">
      <stop
         stop-color="#84281e"
         offset="0"
         id="stop15" />
      <stop
         stop-color="#df8881"
         offset="1"
         id="stop16" />
    </linearGradient>
    <linearGradient
       id="linearGradient1560"
       x1="34.705"
       x2="34.705"
       y1="-30.727"
       y2="-38.74"
       gradientTransform="matrix(.5297 0 0 .5297 -1.0863 35.368)"
       gradientUnits="userSpaceOnUse">
      <stop
         stop-color="#878887"
         offset="0"
         id="stop17" />
      <stop
         stop-color="#d8e3e9"
         offset="1"
         id="stop18" />
    </linearGradient>
    <linearGradient
       id="linearGradient1562"
       x1="32.125"
       x2="32.125"
       y1="-29.828"
       y2="-39.838"
       gradientTransform="matrix(.5297 0 0 .5297 -1.0863 35.368)"
       gradientUnits="userSpaceOnUse">
      <stop
         stop-color="#6c6c6a"
         offset="0"
         id="stop19" />
      <stop
         stop-color="#e3ebef"
         offset="1"
         id="stop20" />
    </linearGradient>
    <linearGradient
       id="linearGradient1590"
       x1="34.705"
       x2="34.705"
       y1="-30.727"
       y2="-38.74"
       gradientTransform="matrix(.5297 0 0 .5297 6.2792 35.368)"
       gradientUnits="userSpaceOnUse">
      <stop
         stop-color="#e76872"
         offset="0"
         id="stop21" />
      <stop
         stop-color="#ea4f66"
         offset="1"
         id="stop22" />
    </linearGradient>
    <linearGradient
       id="linearGradient1592"
       x1="32.125"
       x2="32.125"
       y1="-29.828"
       y2="-39.838"
       gradientTransform="matrix(.5297 0 0 .5297 6.2792 35.368)"
       gradientUnits="userSpaceOnUse">
      <stop
         stop-color="#ab5863"
         offset="0"
         id="stop23" />
      <stop
         stop-color="#d7798a"
         offset="1"
         id="stop24" />
    </linearGradient>
    <linearGradient
       id="linearGradient1620"
       x1="34.705"
       x2="34.705"
       y1="-30.727"
       y2="-38.74"
       gradientTransform="matrix(.5297 0 0 .5297 -8.67 42.768)"
       gradientUnits="userSpaceOnUse">
      <stop
         stop-color="#783bb3"
         offset="0"
         id="stop25" />
      <stop
         stop-color="#b76de6"
         offset="1"
         id="stop26" />
    </linearGradient>
    <linearGradient
       id="linearGradient1622"
       x1="32.125"
       x2="32.125"
       y1="-29.828"
       y2="-39.838"
       gradientTransform="matrix(.5297 0 0 .5297 -8.67 42.768)"
       gradientUnits="userSpaceOnUse">
      <stop
         stop-color="#4b2677"
         offset="0"
         id="stop27" />
      <stop
         stop-color="#b481d5"
         offset=".946"
         id="stop28" />
      <stop
         stop-color="#ddc9ec"
         offset="1"
         id="stop29" />
    </linearGradient>
    <linearGradient
       id="linearGradient1653"
       x1="34.705"
       x2="34.705"
       y1="-30.727"
       y2="-38.74"
       gradientTransform="matrix(.5297 0 0 .5297 -1.0863 42.768)"
       gradientUnits="userSpaceOnUse">
      <stop
         stop-color="#3468e0"
         offset="0"
         id="stop30" />
      <stop
         stop-color="#61dafc"
         offset="1"
         id="stop31" />
    </linearGradient>
    <linearGradient
       id="linearGradient1655"
       x1="32.125"
       x2="32.125"
       y1="-29.828"
       y2="-39.838"
       gradientTransform="matrix(.5297 0 0 .5297 -1.0863 42.768)"
       gradientUnits="userSpaceOnUse">
      <stop
         stop-color="#29438e"
         offset="0"
         id="stop32" />
      <stop
         stop-color="#90dcec"
         offset=".946"
         id="stop33" />
      <stop
         stop-color="#abe2eb"
         offset="1"
         id="stop34" />
    </linearGradient>
    <linearGradient
       id="linearGradient1685"
       x1="34.705"
       x2="34.705"
       y1="-30.727"
       y2="-38.74"
       gradientTransform="matrix(.5297 0 0 .5297 6.2792 42.768)"
       gradientUnits="userSpaceOnUse">
      <stop
         stop-color="#5bc18f"
         offset="0"
         id="stop35" />
      <stop
         stop-color="#84e4dd"
         offset="1"
         id="stop36" />
    </linearGradient>
    <linearGradient
       id="linearGradient1687"
       x1="32.125"
       x2="32.125"
       y1="-29.828"
       y2="-39.838"
       gradientTransform="matrix(.5297 0 0 .5297 6.2792 42.768)"
       gradientUnits="userSpaceOnUse">
      <stop
         stop-color="#3f8264"
         offset="0"
         id="stop37" />
      <stop
         stop-color="#a2e1e0"
         offset=".946"
         id="stop38" />
      <stop
         stop-color="#b8e4e2"
         offset="1"
         id="stop39" />
    </linearGradient>
    <linearGradient
       id="linearGradient862-3"
       x1="7.9373"
       x2="7.9373"
       y1="15.081"
       y2="1.852"
       gradientTransform="matrix(1.9999,0,0,1.9999,1.1e-4,0.02433006)"
       gradientUnits="userSpaceOnUse">
      <stop
         stop-color="#e8e8e8"
         offset="0"
         id="stop40" />
      <stop
         stop-color="#fcfcfc"
         offset="1"
         id="stop41" />
    </linearGradient>
    <filter
       id="filter1766"
       x="-0.44318269"
       y="-0.46444839"
       width="1.8863654"
       height="1.9288968"
       color-interpolation-filters="sRGB">
      <feGaussianBlur
         stdDeviation="0.45310276"
         id="feGaussianBlur41" />
    </filter>
    <filter
       id="filter1033"
       x="-0.05808"
       y="-0.05808"
       width="1.11616"
       height="1.11616"
       color-interpolation-filters="sRGB">
      <feGaussianBlur
         stdDeviation="0.71714282"
         id="feGaussianBlur42" />
    </filter>
    <clipPath
       id="clipPath1261">
      <path
         d="m0.82939-4.9572c-3.8115 0-6.8801 3.0686-6.8801 6.8801v30.927c0 3.8115 3.0686 6.8796 6.8801 6.8796h31.947c3.8115 0 6.8801-3.0681 6.8801-6.8796v-30.927c0-3.8115-3.0686-6.8801-6.8801-6.8801zm8.1673 7.0816h15.874c3.8115 0 6.8796 3.0681 6.8796 6.8795v15.874c0 3.8115-3.0681 6.8801-6.8796 6.8801h-15.874c-3.8115 0-6.8801-3.0686-6.8801-6.8801v-15.874c0-3.8115 3.0686-6.8795 6.8801-6.8795z"
         fill="#000000"
         style="paint-order:stroke fill markers"
         id="path42" />
    </clipPath>
    <filter
       style="color-interpolation-filters:sRGB;"
       inkscape:label="Blur"
       id="filter75"
       x="-0.11560181"
       y="-0.11560181"
       width="1.2312036"
       height="1.2312036">
      <feGaussianBlur
         stdDeviation="1 1"
         result="blur"
         id="feGaussianBlur75" />
    </filter>
  </defs>
  <rect
     x="2.1166"
     y="2.1242001"
     width="29.634001"
     height="29.634001"
     rx="6.8799"
     ry="6.8799"
     fill="url(#linearGradient862-3)"
     opacity="0.8"
     stroke-width="1.9999"
     id="rect42"
     sodipodi:insensitive="true"
     style="fill:url(#linearGradient862-3)" />
  <rect
     x="2.1166"
     y="2.5109"
     width="29.634"
     height="29.634"
     rx="6.8799"
     ry="6.8799"
     clip-path="url(#clipPath1261)"
     fill="#000000"
     filter="url(#filter1033)"
     opacity=".15"
     stroke-width="1.9999"
     id="rect43" />
  <path
     d="M 7.0841544,17.461104 C 7.0878044,11.733316 11.730277,7.0899118 17.462701,7.0899118 c 5.732422,0 10.380459,4.6480382 10.380459,10.3804602 0,5.732425 -4.643403,10.375825 -10.375825,10.380461 H 9.4424041 c -1.3017288,0 -2.3563081,-1.05195 -2.3582351,-2.35414 H 7.082239 V 17.461104 Z M 22.958782,14.536966 c 0,-1.839751 -1.649752,-3.174382 -3.392186,-3.174382 -1.617311,0 -3.049259,1.218777 -3.248527,2.775846 -0.0092,0.176102 -0.01847,0.2317 -0.01847,0.393902 -0.0046,0.977801 0,1.983409 -0.03708,2.984382 0.0417,1.209508 0.04634,2.414383 0,3.549747 0,1.255851 -0.899021,2.108529 -2.071456,2.108529 -1.172437,0 -2.122434,-0.936093 -2.122434,-2.108529 0.02309,-1.283657 1.047316,-2.099264 2.247556,-2.136336 h 0.0092 l 1.218775,-0.0092 v -1.728532 l -1.218775,0.0092 c -2.182678,-0.01847 -3.91955,1.691458 -3.982574,3.864868 0,2.113163 1.739652,3.841695 3.848184,3.841695 1.992676,0 3.647062,-1.557067 3.827795,-3.503404 l 0.0092,-2.479261 1.510727,-0.01385 c 1.172436,0.0092 1.158534,-1.751702 -0.0092,-1.728532 l -1.501459,0.01385 c 0,-0.296585 0.0046,-0.59317 0.0046,-0.889755 0.0046,-0.588534 0.0046,-1.177068 -0.0046,-1.770238 0.0046,-0.764633 0.732192,-1.445849 1.538531,-1.445849 0.810973,0 1.663654,0.403169 1.663654,1.445849 0,0.148302 -0.0046,0.236341 -0.01385,0.291951 -0.08804,0.486583 0.240982,0.945363 0.727558,1.014875 0.49122,0.06952 0.936096,-0.282683 0.982438,-0.769267 0.0278,-0.194642 0.03244,-0.366097 0.03244,-0.537559 z"
     fill="white"
     id="path1-0"
     style="color:#ffffff;opacity:0.3;fill:#1a1a1a;fill-opacity:1;stroke-width:0.0463414;filter:url(#filter75)"
     inkscape:label="Shadow" />
  <path
     d="M 6.5550554,16.931932 C 6.5587054,11.204144 11.201178,6.5607403 16.933602,6.5607403 c 5.732422,0 10.380459,4.6480377 10.380459,10.3804597 0,5.732425 -4.643403,10.375825 -10.375825,10.380461 H 8.9133051 c -1.3017288,0 -2.3563081,-1.05195 -2.3582351,-2.35414 H 6.55314 V 16.931932 Z M 22.429683,14.007794 c 0,-1.839751 -1.649752,-3.174382 -3.392186,-3.174382 -1.617311,0 -3.049259,1.218777 -3.248527,2.775846 -0.0092,0.176102 -0.01847,0.2317 -0.01847,0.393902 -0.0046,0.977801 0,1.983409 -0.03708,2.984382 0.0417,1.209508 0.04634,2.414383 0,3.549747 0,1.255851 -0.899021,2.108529 -2.071456,2.108529 -1.172437,0 -2.122434,-0.936093 -2.122434,-2.108529 0.02309,-1.283657 1.047316,-2.099264 2.247556,-2.136336 h 0.0092 l 1.218775,-0.0092 v -1.728532 l -1.218775,0.0092 c -2.182678,-0.01847 -3.9195505,1.691458 -3.9825748,3.864868 0,2.113163 1.7396528,3.841695 3.8481848,3.841695 1.992676,0 3.647062,-1.557067 3.827795,-3.503404 l 0.0092,-2.479261 1.510727,-0.01385 c 1.172436,0.0092 1.158534,-1.751702 -0.0092,-1.728532 l -1.501459,0.01385 c 0,-0.296585 0.0046,-0.59317 0.0046,-0.889755 0.0046,-0.588534 0.0046,-1.177068 -0.0046,-1.770238 0.0046,-0.764633 0.732192,-1.445849 1.538531,-1.445849 0.810973,0 1.663654,0.403169 1.663654,1.445849 0,0.148302 -0.0046,0.236341 -0.01385,0.291951 -0.08804,0.486583 0.240982,0.945363 0.727558,1.014875 0.49122,0.06952 0.936096,-0.282683 0.982438,-0.769267 0.0278,-0.194642 0.03244,-0.366097 0.03244,-0.537559 z"
     fill="white"
     id="path1"
     style="color:#ffffff;fill:#294190;fill-opacity:1;stroke-width:0.0463414" />
  <style
     id="style69"><![CDATA[.B{clip-path:url(#C)}.C{fill:#3e2723}.D{fill-opacity:.15}.E{fill-opacity:.2}]]></style>
  <style
     id="style70"><![CDATA[.B{clip-path:url(#C)}.C{fill:#3e2723}.D{fill-opacity:.15}.E{fill-opacity:.2}]]></style>
</svg>
